<mxfile host="app.diagrams.net" modified="2023-05-10T13:38:33.186Z" agent="Mozilla/5.0 (Macintosh; Intel Mac OS X 10_15_7) AppleWebKit/537.36 (KHTML, like Gecko) Chrome/112.0.0.0 Safari/537.36" version="21.2.8" etag="dIoK3aBKc8oR9xtwlBBz" type="github">
  <diagram name="Page-1" id="I82pT1SrPTpKd4JGD9_T">
    <mxGraphModel>
      <root>
        <mxCell id="0" />
        <mxCell id="1" parent="0" />
      </root>
    </mxGraphModel>
  </diagram>
</mxfile>
